<?xml version="1.0" encoding="UTF-8"?>
<svg id="Layer_1" xmlns="http://www.w3.org/2000/svg" viewBox="0 0 400 400">
  <defs>
    <style>
      .cls-1 {
        fill: #757575;
      }

      .cls-2 {
        fill: #020202;
      }

      .cls-3 {
        fill: #333;
      }

      .cls-4 {
        fill: #6ec232;
      }

      .cls-5 {
        fill: #fefefe;
      }

      .cls-6 {
        fill: #040404;
      }
    </style>
  </defs>
  <path class="cls-4" d="M399.9,200.55c0,65.11-.03,130.22.1,195.33,0,3.41-.65,4.1-4.09,4.1-130.56-.11-261.13-.12-391.69.03-3.93,0-4.2-1.21-4.2-4.49C.11,265.13.11,134.75,0,4.36,0,.78.71,0,4.34.01,134.73.13,265.13.13,395.53,0c4.01,0,4.47,1.2,4.46,4.73-.11,65.27-.08,130.55-.08,195.82Z"/>
  <g>
    <polygon class="cls-3" points="268.67 100.77 268.67 88.6 231.43 88.6 231.43 100.77 218.86 100.77 218.86 125.81 181.14 125.81 181.14 101.24 168.81 101.24 168.81 89.07 131.57 89.07 131.57 101.24 119 101.24 119 125.81 119 186.88 169.38 186.88 169.38 199.35 181.02 199.35 181.02 212 194.39 212 194.39 224.47 205.61 224.47 205.61 212 218.98 212 218.98 199.35 230.62 199.35 230.62 186.88 281.06 186.88 281.06 125.81 281.06 100.77 268.67 100.77"/>
    <polygon class="cls-5" points="268.67 261.96 268.67 186.87 230.62 186.87 230.62 199.35 218.98 199.35 218.98 212 205.61 212 205.61 224.47 194.39 224.47 194.39 212 181.02 212 181.02 199.35 169.38 199.35 169.38 186.87 131.68 186.87 131.68 261.96 119 261.96 119 275.03 144.48 275.03 144.48 287.88 256.48 287.88 256.48 275.03 281.06 275.03 281.06 261.96 268.67 261.96"/>
    <rect class="cls-5" x="144.48" y="311.98" width="112" height="13"/>
    <polygon class="cls-1" points="169.38 186.88 131.68 186.88 131.68 124.24 144.43 124.24 144.43 137.51 156.63 137.51 156.63 149.9 169.38 149.9 169.38 186.88"/>
    <polygon class="cls-1" points="230.62 186.88 268.67 186.88 268.67 124.24 255.57 124.24 255.57 137.51 243.37 137.51 243.37 149.9 230.62 149.9 230.62 186.88"/>
    <rect class="cls-6" x="156.4" y="211.9" width="12" height="25"/>
    <rect class="cls-6" x="231.6" y="211.9" width="12" height="25"/>
    <rect class="cls-6" x="181.5" y="236.94" width="37" height="12"/>
    <g>
      <polygon class="cls-2" points="281.06 249.84 281.06 186.87 268.67 186.87 268.67 261.96 281.06 261.96 281.06 275.03 256.48 275.03 256.48 287.88 144.48 287.88 144.48 275.03 119 275.03 119 261.96 131.68 261.96 131.68 186.87 119 186.87 119 249.84 106 249.84 106 286.91 119 286.91 119 311.98 281.06 311.98 281.06 286.91 294 286.91 294 249.84 281.06 249.84"/>
      <rect class="cls-2" x="218.97" y="186.85" width="11.64" height="12.48"/>
    </g>
  </g>
</svg>